<svg xmlns="http://www.w3.org/2000/svg" version="1.1" xmlns:xlink="http://www.w3.org/1999/xlink" xmlns:svgjs="http://svgjs.dev/svgjs" width="1920" height="1080" preserveAspectRatio="none" viewBox="0 0 1920 1080"><g mask="url(&quot;#SvgjsMask1151&quot;)" fill="none"><rect width="1920" height="1080" x="0" y="0" fill="rgba(255, 255, 255, 1)"></rect><path d="M1952 1080L0 1080 L0 522.49Q15.54 442.03, 96 457.58Q75.55 341.13, 192 320.67Q253.94 222.61, 352 284.54Q487.82 260.36, 512 396.18Q553.6 341.78, 608 383.38Q712.59 327.97, 768 432.55Q901.36 405.9, 928 539.26Q1024.85 476.11, 1088 572.96Q1102.75 491.71, 1184 506.46Q1187.61 414.07, 1280 417.68Q1350.29 327.97, 1440 398.25Q1474.57 272.82, 1600 307.39Q1646.45 193.85, 1760 240.3Q1817.93 202.24, 1856 260.17Q1948.09 256.25, 1952 348.34z" fill="rgba(255, 194, 0, 1)"></path><path d="M2080 1080L0 1080 L0 735.64Q115.53 755.17, 96 870.71Q31.14 645.86, 256 581Q461.91 690.91, 352 896.83Q311.94 696.77, 512 656.71Q528.63 577.34, 608 593.97Q656.56 482.53, 768 531.08Q835.72 438.8, 928 506.52Q1070.11 488.63, 1088 630.74Q1146.12 592.86, 1184 650.98Q1257.46 628.44, 1280 701.91Q1297.54 559.45, 1440 577Q1504.66 481.66, 1600 546.32Q1729.62 515.94, 1760 645.56Q1965.54 691.1, 1920 896.63Q1821.48 638.11, 2080 539.59z" fill="rgba(53, 108, 177, 1)"></path><path d="M2080 1080L0 1080 L0 957.83Q129.41 991.24, 96 1120.64Q19.22 947.87, 192 871.09Q338.02 921.11, 288 1067.13Q204.92 888.05, 384 804.97Q532.54 857.51, 480 1006.05Q546.3 976.35, 576 1042.65Q587.85 958.5, 672 970.35Q765.41 903.76, 832 997.18Q894.48 963.66, 928 1026.14Q929.63 931.77, 1024 933.39Q1080.7 830.09, 1184 886.79Q1199.93 806.72, 1280 822.66Q1345.68 792.34, 1376 858.01Q1514.86 900.87, 1472 1039.72Q1456.81 928.53, 1568 913.34Q1584.53 833.87, 1664 850.4Q1700.93 791.33, 1760 828.26Q1823.58 731.84, 1920 795.41Q2033.67 749.08, 2080 862.75z" fill="rgba(57, 98, 179, 1)"></path></g><defs><mask id="SvgjsMask1151"><rect width="1920" height="1080" fill="#ffffff"></rect></mask></defs></svg>